<svg xmlns="http://www.w3.org/2000/svg" viewBox="0 0 200 200"><rect width="200" height="200" rx="46" fill="#C2541B"/><g transform="translate(100 102) scale(0.25) translate(-205 -250)"><path d="M 205 14 C 202 80, 167 112, 149.5 150 C 127 182, 105.5 225, 105.5 278 C 105.5 322, 133 362, 156 384 C 168 393, 150 400, 125 404 C 95 402, 20 407, 12 445 C 6 466, 38 486, 88 487.5 C 138 489, 180 468, 205 426 L 205 398 C 215 388, 243.5 358, 243.5 318 C 242 286, 208 246, 205 228 C 202 246, 168 286, 166.5 318 C 166.5 358, 195 388, 205 398 L 205 426 C 230 468, 272 489, 322 487.5 C 372 486, 404 466, 398 445 C 390 407, 315 402, 285 404 C 260 400, 242 393, 254 384 C 277 362, 304.5 322, 304.5 278 C 304.5 225, 283 182, 260.5 150 C 243 112, 208 80, 205 14 Z M 126 404 C 146 414, 160 432, 170 448 M 284 404 C 264 414, 250 432, 240 448" fill="none" stroke="#FFFFFF" stroke-width="40" stroke-linecap="round" stroke-linejoin="round"/></g></svg>
